<?xml version="1.0" ?><svg viewBox="0 0 1024 1024" xmlns="http://www.w3.org/2000/svg"><path d="M357.3 410.8c-10 3.4-15.3 14.2-12 24.1 0.3 0.8 0.6 1.5 0.9 2.3 4.1 8.5 14 12.8 23.2 9.7 28.6-9.6 59.6 5.8 69.3 34.4 4.7 13.8 3.6 28.7-2.8 41.7-6.5 13.1-17.7 22.8-31.5 27.5-13.8 4.7-28.7 3.7-41.7-2.8-13.1-6.5-22.8-17.7-27.5-31.5-3.6-10.6-3.8-21.9-0.7-32.6 2.7-9.3-2-19-10.7-22.7-0.7-0.3-1.5-0.6-2.3-0.9-10.1-2.9-20.7 2.9-23.6 13-5.3 18.2-4.9 37.3 1.2 55.3 7.9 23.5 24.5 42.5 46.7 53.5 13 6.5 27 9.7 41.1 9.7 10 0 20-1.6 29.7-4.9 23.5-7.9 42.5-24.5 53.5-46.7 11-22.2 12.7-47.3 4.8-70.8-16.4-48.5-69.2-74.6-117.6-58.3z" fill="#2E0C08"/><path d="M334.3 483.5c-3.1 10.7-2.9 22 0.7 32.6 4.7 13.8 14.4 25 27.5 31.5s27.9 7.5 41.7 2.8c13.8-4.7 25-14.4 31.5-27.5s7.5-27.9 2.8-41.7c-9.6-28.6-40.7-44-69.3-34.4-9.2 3.1-19-1.2-23.2-9.7-9.3 6.2-17 14.3-22.6 23.6 8.9 3.8 13.6 13.5 10.9 22.8z" fill="#BCE5E5"/><path d="M679.1 493.1c9.8 0 19.7-1.6 29.5-4.9 48.5-16.3 74.6-69 58.3-117.5-16.3-48.5-69-74.6-117.5-58.3-23.5 7.9-42.5 24.5-53.5 46.7-11 22.2-12.7 47.3-4.8 70.8 13 38.7 49.3 63.2 88 63.2z" fill="#2E0C08"/><path d="M661.6 348.5c5.8-1.9 11.6-2.9 17.4-2.9 22.8 0 44.2 14.4 51.9 37.2 9.6 28.6-5.8 59.6-34.4 69.3-28.6 9.6-59.6-5.8-69.2-34.4-4.7-13.8-3.7-28.7 2.8-41.8 6.4-12.9 17.6-22.7 31.5-27.4z" fill="#A6CB70"/><path d="M566.2 285c11-22.2 12.7-47.3 4.8-70.8-7.9-23.5-24.5-42.5-46.7-53.5-22.2-11-47.3-12.7-70.8-4.8-48.5 16.3-74.6 69-58.3 117.5 7.9 23.5 24.5 42.5 46.7 53.5 13 6.5 27 9.7 41.1 9.7 10 0 20-1.6 29.7-4.9 23.5-7.9 42.5-24.5 53.5-46.7z" fill="#2E0C08"/><path d="M500.5 295.6c-13.8 4.7-28.7 3.7-41.7-2.8-13.1-6.5-22.8-17.7-27.5-31.5-9.6-28.6 5.8-59.6 34.4-69.3 5.7-1.9 11.6-2.9 17.5-2.9 8.3 0 16.6 1.9 24.3 5.7 13.1 6.5 22.8 17.7 27.5 31.5 4.7 13.8 3.7 28.7-2.8 41.7-6.6 13.1-17.8 22.9-31.7 27.6z" fill="#F6442C"/><path d="M416.4 755.5H282c-8.9 0-17.2-3.4-23.4-9.7-1.4-1.4-2.6-2.9-3.7-4.4h40c29.7 0 54-22.8 55.4-51.8 0.7-15-4.6-29.3-15-40.2-10.2-10.7-24.6-16.9-39.5-16.9H185.4c-32.2 0-62.5 12.5-85.3 35.3-22.8 22.8-35.3 53.1-35.3 85.3 0 66.5 54.1 120.6 120.6 120.6h232.1c16.1 0 31.7-6.7 42.8-18.3 11.3-11.8 17.1-27.3 16.3-43.7-1.5-31.5-27.9-56.2-60.2-56.2z" fill="#2E0C08"/><path d="M102.9 753.1c0-22 8.6-42.8 24.2-58.4 15.6-15.6 36.3-24.2 58.3-24.2h110.5c4.5 0 8.7 1.8 11.8 5.1 3.1 3.3 4.7 7.6 4.5 12.1-0.4 8.6-8.2 15.5-17.3 15.5h-65.1c-10.5 0-19 8.5-19 19 0 19 7.4 36.9 20.9 50.4 13.5 13.5 31.4 20.9 50.4 20.9h134.4c11.7 0 21.6 9 22.1 20 0.3 5.8-1.8 11.4-5.8 15.6-4 4.2-9.4 6.5-15.2 6.5H185.4c-45.5 0-82.5-37-82.5-82.5z" fill="#FFE5CD"/><path d="M923.3 586.7c-22.8-22.8-53.1-35.3-85.3-35.3H727.6c-14.8 0-29.2 6.1-39.4 16.9-10.4 10.9-15.7 25.1-15 40.2 1.4 29 25.7 51.8 55.4 51.8h40c-1.1 1.6-2.3 3-3.7 4.4-6.3 6.3-14.6 9.7-23.5 9.7H607.1c-32.2 0-58.7 24.7-60.2 56.3-0.8 16.3 5 31.8 16.3 43.7 11.1 11.6 26.7 18.3 42.8 18.3h232.1c66.5 0 120.6-54.1 120.6-120.6 0-32.3-12.6-62.6-35.4-85.4z" fill="#2E0C08"/><path d="M838.1 754.5H605.9c-5.8 0-11.2-2.3-15.2-6.5s-6.1-9.7-5.8-15.6c0.5-11 10.5-20 22.1-20h134.4c19 0 36.9-7.4 50.4-20.9 13.5-13.5 20.9-31.4 20.9-50.4 0-10.5-8.5-19-19-19h-65.1c-9.1 0-16.9-7-17.3-15.5-0.2-4.5 1.4-8.8 4.5-12.1 3.1-3.3 7.3-5.1 12-5.1h110.3c22 0 42.8 8.6 58.3 24.2 15.6 15.6 24.2 36.3 24.2 58.3 0 45.6-37 82.6-82.5 82.6z" fill="#FFE5CD"/></svg>