<?xml version="1.0" ?><svg id="Line" viewBox="0 0 64 64" xmlns="http://www.w3.org/2000/svg"><title/><path d="M28.5,46H16a6,6,0,0,1-6-6V35a3,3,0,0,0-6,0v5A12,12,0,0,0,16,52h5v9H43V52h5A12,12,0,0,0,60,40V35a3,3,0,0,0-6,0v5a6,6,0,0,1-6,6H35.5" style="fill:none;stroke:#000;stroke-linecap:round;stroke-linejoin:round;stroke-width:2px"/><rect height="4" style="fill:none;stroke:#000;stroke-linecap:round;stroke-linejoin:round;stroke-width:2px" transform="translate(-30.5 76.5) rotate(-90)" width="15" x="15.5" y="51.5"/><rect height="4" style="fill:none;stroke:#000;stroke-linecap:round;stroke-linejoin:round;stroke-width:2px" transform="translate(-12.5 94.5) rotate(-90)" width="15" x="33.5" y="51.5"/><circle cx="7" cy="23" r="3" style="fill:none;stroke:#000;stroke-linecap:round;stroke-linejoin:round;stroke-width:2px"/><circle cx="57" cy="23" r="3" style="fill:none;stroke:#000;stroke-linecap:round;stroke-linejoin:round;stroke-width:2px"/><circle cx="16" cy="9" r="3" style="fill:none;stroke:#000;stroke-linecap:round;stroke-linejoin:round;stroke-width:2px"/><circle cx="48" cy="9" r="3" style="fill:none;stroke:#000;stroke-linecap:round;stroke-linejoin:round;stroke-width:2px"/><circle cx="32" cy="5" r="3" style="fill:none;stroke:#000;stroke-linecap:round;stroke-linejoin:round;stroke-width:2px"/><path d="M57,32h0a3,3,0,0,1,3,3v3a0,0,0,0,1,0,0H54a0,0,0,0,1,0,0V35A3,3,0,0,1,57,32Z" style="fill:none;stroke:#000;stroke-linecap:round;stroke-linejoin:round;stroke-width:2px"/><path d="M7,32H7a3,3,0,0,1,3,3v3a0,0,0,0,1,0,0H4a0,0,0,0,1,0,0V35a3,3,0,0,1,3-3Z" style="fill:none;stroke:#000;stroke-linecap:round;stroke-linejoin:round;stroke-width:2px"/><polyline points="30 51.367 30 61 34 61 34 51.367" style="fill:none;stroke:#000;stroke-linecap:round;stroke-linejoin:round;stroke-width:2px"/><path d="M24,31H40a0,0,0,0,1,0,0v5a8,8,0,0,1-8,8h0a8,8,0,0,1-8-8V31A0,0,0,0,1,24,31Z" style="fill:none;stroke:#000;stroke-linecap:round;stroke-linejoin:round;stroke-width:2px"/><rect height="4" style="fill:none;stroke:#000;stroke-linecap:round;stroke-linejoin:round;stroke-width:2px" width="16" x="24" y="27"/><polygon points="42 16 32 21 22 16 18 25 24 23 24 27 40 27 40 23 46 25 42 16" style="fill:none;stroke:#000;stroke-linecap:round;stroke-linejoin:round;stroke-width:2px"/><path d="M28.5,43.185V48.5a3.5,3.5,0,0,0,7,0V43.185" style="fill:none;stroke:#000;stroke-linecap:round;stroke-linejoin:round;stroke-width:2px"/></svg>