<?xml version="1.0" ?><svg id="show" viewBox="0 0 64 64" xmlns="http://www.w3.org/2000/svg"><title/><path d="M54,35v5a6,6,0,0,1-6,6H16a6,6,0,0,1-6-6V35a3,3,0,0,0-3-3H7a3,3,0,0,0-3,3v5A12,12,0,0,0,16,52h5v9H43V52h5A12,12,0,0,0,60,40V35a3,3,0,0,0-3-3h0A3,3,0,0,0,54,35Z" style="fill:#ff3b40;stroke:#000;stroke-linecap:round;stroke-linejoin:round;stroke-width:2px"/><rect height="4" style="fill:#ffe664;stroke:#000;stroke-linecap:round;stroke-linejoin:round;stroke-width:2px" transform="translate(-21.5 85.5) rotate(-90)" width="15" x="24.5" y="51.5"/><rect height="4" style="fill:#ffe664;stroke:#000;stroke-linecap:round;stroke-linejoin:round;stroke-width:2px" transform="translate(-30.5 76.5) rotate(-90)" width="15" x="15.5" y="51.5"/><rect height="4" style="fill:#ffe664;stroke:#000;stroke-linecap:round;stroke-linejoin:round;stroke-width:2px" transform="translate(-12.5 94.5) rotate(-90)" width="15" x="33.5" y="51.5"/><circle cx="7" cy="23" r="3" style="fill:#2fd296;stroke:#000;stroke-linecap:round;stroke-linejoin:round;stroke-width:2px"/><circle cx="57" cy="23" r="3" style="fill:#ffa939;stroke:#000;stroke-linecap:round;stroke-linejoin:round;stroke-width:2px"/><circle cx="16" cy="9" r="3" style="fill:#ffa939;stroke:#000;stroke-linecap:round;stroke-linejoin:round;stroke-width:2px"/><circle cx="48" cy="9" r="3" style="fill:#2fd296;stroke:#000;stroke-linecap:round;stroke-linejoin:round;stroke-width:2px"/><circle cx="32" cy="5" r="3" style="fill:#ffe664;stroke:#000;stroke-linecap:round;stroke-linejoin:round;stroke-width:2px"/><path d="M57,32h0a3,3,0,0,1,3,3v3a0,0,0,0,1,0,0H54a0,0,0,0,1,0,0V35A3,3,0,0,1,57,32Z" style="fill:#ffd2b4;stroke:#000;stroke-linecap:round;stroke-linejoin:round;stroke-width:2px"/><path d="M7,32H7a3,3,0,0,1,3,3v3a0,0,0,0,1,0,0H4a0,0,0,0,1,0,0V35a3,3,0,0,1,3-3Z" style="fill:#ffd2b4;stroke:#000;stroke-linecap:round;stroke-linejoin:round;stroke-width:2px"/><path d="M28.5,43h7a0,0,0,0,1,0,0v5.5A3.5,3.5,0,0,1,32,52h0a3.5,3.5,0,0,1-3.5-3.5V43A0,0,0,0,1,28.5,43Z" style="fill:#dfbea0;stroke:#000;stroke-linecap:round;stroke-linejoin:round;stroke-width:2px"/><path d="M24,31H40a0,0,0,0,1,0,0v5a8,8,0,0,1-8,8h0a8,8,0,0,1-8-8V31A0,0,0,0,1,24,31Z" style="fill:#ffd2b4;stroke:#000;stroke-linecap:round;stroke-linejoin:round;stroke-width:2px"/><rect height="4" style="fill:#fff;stroke:#000;stroke-linecap:round;stroke-linejoin:round;stroke-width:2px" width="16" x="24" y="27"/><polygon points="42 16 32 21 22 16 18 25 24 23 24 27 40 27 40 23 46 25 42 16" style="fill:#ff3b40;stroke:#000;stroke-linecap:round;stroke-linejoin:round;stroke-width:2px"/></svg>