<?xml version="1.0" ?><svg id="Flat" viewBox="0 0 64 64" xmlns="http://www.w3.org/2000/svg"><title/><circle cx="7" cy="23" r="3" style="fill:#2fd296"/><circle cx="57" cy="23" r="3" style="fill:#ffa939"/><circle cx="16" cy="9" r="3" style="fill:#ffa939"/><circle cx="48" cy="9" r="3" style="fill:#2fd296"/><circle cx="32" cy="5" r="3" style="fill:#ffe664"/><path d="M54,38v2a6,6,0,0,1-6,6H16a6,6,0,0,1-6-6V38H4v2A12,12,0,0,0,16,52h5v9H43V52h5A12,12,0,0,0,60,40V38Z" style="fill:#ff323c"/><rect height="4" style="fill:#ffe664" transform="translate(-21.5 85.5) rotate(-90)" width="15" x="24.5" y="51.5"/><rect height="4" style="fill:#ffe664" transform="translate(-30.5 76.5) rotate(-90)" width="15" x="15.5" y="51.5"/><rect height="4" style="fill:#ffe664" transform="translate(-12.5 94.5) rotate(-90)" width="15" x="33.5" y="51.5"/><path d="M8,22a3,3,0,0,1-3,3c-.083,0-.16-.018-.242-.024a2.991,2.991,0,1,0,2.484-4.952A2.98,2.98,0,0,1,8,22Z" style="fill:#0ac387"/><path d="M58,22a3,3,0,0,1-3,3c-.083,0-.16-.018-.242-.024a2.991,2.991,0,1,0,2.484-4.952A2.98,2.98,0,0,1,58,22Z" style="fill:#ff961e"/><path d="M17,8a3,3,0,0,1-3,3c-.083,0-.16-.018-.242-.024a2.991,2.991,0,1,0,2.484-4.952A2.98,2.98,0,0,1,17,8Z" style="fill:#ff961e"/><path d="M49,8a3,3,0,0,1-3,3c-.083,0-.16-.018-.242-.024a2.991,2.991,0,1,0,2.484-4.952A2.98,2.98,0,0,1,49,8Z" style="fill:#0ac387"/><path d="M33,4a3,3,0,0,1-3,3c-.083,0-.16-.018-.242-.024a2.991,2.991,0,1,0,2.484-4.952A2.98,2.98,0,0,1,33,4Z" style="fill:#ffdc32"/><path d="M57,32h0a3,3,0,0,1,3,3v3a0,0,0,0,1,0,0H54a0,0,0,0,1,0,0V35A3,3,0,0,1,57,32Z" style="fill:#ffd2b4"/><path d="M7,32H7a3,3,0,0,1,3,3v3a0,0,0,0,1,0,0H4a0,0,0,0,1,0,0V35a3,3,0,0,1,3-3Z" style="fill:#ffd2b4"/><path d="M28.5,43h7a0,0,0,0,1,0,0v5.5A3.5,3.5,0,0,1,32,52h0a3.5,3.5,0,0,1-3.5-3.5V43A0,0,0,0,1,28.5,43Z" style="fill:#ffd2b4"/><path d="M28.5,45.355a9.819,9.819,0,0,0,7,0V43h-7Z" style="fill:#dfbea0"/><path d="M24,31H40a0,0,0,0,1,0,0v5a8,8,0,0,1-8,8h0a8,8,0,0,1-8-8V31A0,0,0,0,1,24,31Z" style="fill:#ffd2b4"/><rect height="4" style="fill:#ffe664" width="16" x="24" y="27"/><polygon points="42 16 32 21 22 16 18 25 24 23 24 27 40 27 40 23 46 25 42 16" style="fill:#ff323c"/><polygon points="23 17 33 22 42.545 17.227 42 16 32 21 22 16 18 25 19.696 24.435 23 17" style="fill:#ff5a69"/><rect height="2" style="fill:#dfbea0" width="16" x="24" y="31"/></svg>