<?xml version="1.0" ?><svg viewBox="0 0 64 64" xmlns="http://www.w3.org/2000/svg"><defs><style>.cls-1{fill:#78b75b;}.cls-2{fill:#f7d881;}.cls-3{fill:#fcd8ae;}.cls-4{fill:#bda283;}</style></defs><title/><g data-name="Layer 9" id="Layer_9"><polygon class="cls-1" points="24 35 23 21 41 21 40 35 24 35"/><polygon class="cls-2" points="23.71 31 24 35 40 35 40.29 31 23.71 31"/><path class="cls-3" d="M40,35v5a8,8,0,0,1-8,8h0a8,8,0,0,1-8-8V35Z"/><path class="cls-3" d="M24,40V38H22a2,2,0,0,0,0,4h2.26A8.24,8.24,0,0,1,24,40Z"/><path class="cls-3" d="M42,38H40v2a8.24,8.24,0,0,1-.26,2H42a2,2,0,0,0,0-4Z"/><polygon class="cls-1" points="20 62 20 56 9 45 13 41 20 48 44 48 51 41 55 45 44 56 44 62 20 62"/><rect class="cls-1" height="2" width="22" x="21" y="34"/><polygon class="cls-3" points="28 48 32 54 36 48 28 48"/><path class="cls-3" d="M9,45,8,44a2.84,2.84,0,0,1,0-4H8a2.84,2.84,0,0,1,4,0l1,1Z"/><path class="cls-3" d="M55,45l1-1a2.84,2.84,0,0,0,0-4h0a2.84,2.84,0,0,0-4,0l-1,1Z"/><circle class="cls-1" cx="32" cy="6" r="4"/><circle class="cls-2" cx="48" cy="12" r="4"/><circle class="cls-1" cx="56" cy="25" r="4"/><circle class="cls-2" cx="16" cy="12" r="4"/><circle class="cls-1" cx="8" cy="25" r="4"/><path class="cls-4" d="M32,45a4,4,0,0,1-4-4h2a2,2,0,0,0,4,0h2A4,4,0,0,1,32,45Z"/><rect class="cls-2" height="14" width="4" x="24" y="48"/><rect class="cls-2" height="14" width="4" x="36" y="48"/></g></svg>